<svg width="1200" height="900" viewBox="0 0 1200 900" fill="none" xmlns="http://www.w3.org/2000/svg">
  <rect width="1200" height="900" fill="#07111E"/>
  <g opacity="0.35" stroke="#4DB5FF" stroke-width="2">
    <rect x="128" y="123" width="944" height="654" rx="32"/>
    <path d="M128 280H1072"/>
    <path d="M128 450H1072"/>
    <path d="M128 620H1072"/>
    <path d="M344 123V777"/>
    <path d="M600 123V777"/>
    <path d="M856 123V777"/>
  </g>
  <g stroke="#E6F3FF" stroke-width="5">
    <circle cx="334" cy="271" r="44"/>
    <circle cx="598" cy="520" r="44"/>
    <circle cx="860" cy="346" r="44"/>
    <path d="M334 271L598 520"/>
    <path d="M598 520L860 346"/>
    <path d="M334 271L860 346"/>
  </g>
  <g stroke="#FF7A18" stroke-width="4" stroke-dasharray="10 10">
    <path d="M334 271C389 347 447 388 598 520"/>
    <path d="M860 346C792 421 742 448 598 520"/>
    <path d="M334 271C451 255 566 255 860 346"/>
  </g>
  <g fill="#4DB5FF">
    <circle cx="334" cy="271" r="9"/>
    <circle cx="598" cy="520" r="9"/>
    <circle cx="860" cy="346" r="9"/>
  </g>
  <g opacity="0.7" stroke="#93A4B8">
    <path d="M170 818H495"/>
    <path d="M170 842H401"/>
  </g>
</svg>
